<svg class="svgWave" xmlns="http://www.w3.org/2000/svg" viewBox="0 0 400 70">
  <path class="svgWaveObject" d="M366.18,70c-18.65,0-33.82-15.7-33.82-35A13.67,13.67,0,1,0,305,35c0,19.3-15.17,35-33.82,35S237.4,54.3,237.4,35a13.67,13.67,0,1,0-27.31,0c0,19.3-15.17,35-33.82,35s-33.82-15.7-33.82-35a13.67,13.67,0,1,0-27.31,0c0,19.3-15.17,35-33.82,35S47.48,54.3,47.48,35A13.92,13.92,0,0,0,33.82,20.87,13.92,13.92,0,0,0,20.17,35H0C0,15.7,15.17,0,33.82,0S67.64,15.7,67.64,35A13.67,13.67,0,1,0,95,35c0-19.3,15.17-35,33.82-35S162.6,15.7,162.6,35a13.67,13.67,0,1,0,27.31,0c0-19.3,15.17-35,33.82-35s33.82,15.7,33.82,35a13.66,13.66,0,1,0,27.31,0c0-19.3,15.17-35,33.82-35s33.82,15.7,33.82,35a13.67,13.67,0,1,0,27.31,0H400C400,54.3,384.83,70,366.18,70Z"/>
</svg>