<svg id="SVG" xmlns="http://www.w3.org/2000/svg" viewBox="0 0 1024 1024"><defs><style>.cls-1{fill:#85f7d8;}.cls-2{fill:#1a1a1a;}.cls-3{fill:red;}.cls-4{fill:#c1c167;}.cls-5{fill:#fcff83;}.cls-6{fill:#fff;}.cls-7{fill:#000075;}.cls-8{fill:blue;}</style></defs><title>logotype_v2</title><rect id="Square_2" data-name="Square 2" class="cls-1" x="182.93" y="625.84" width="240.5" height="635.16"/><rect id="Square_1" data-name="Square 1" class="cls-1" x="182.93" y="-58.53" width="240.5" height="106.93"/><path id="Wave" class="cls-2" d="M1122.88,359.44a33.58,33.58,0,0,1-33.54-33.54,13.54,13.54,0,0,0-27.09,0,33.54,33.54,0,1,1-67.09,0,13.54,13.54,0,1,0-27.09,0,33.54,33.54,0,0,1-67.09,0,13.54,13.54,0,1,0-27.09,0,33.54,33.54,0,0,1-67.09,0,13.54,13.54,0,1,0-27.09,0h-20a33.54,33.54,0,1,1,67.09,0,13.54,13.54,0,0,0,27.09,0,33.54,33.54,0,1,1,67.09,0,13.54,13.54,0,0,0,27.09,0,33.54,33.54,0,0,1,67.09,0,13.54,13.54,0,1,0,27.09,0,33.54,33.54,0,0,1,67.09,0,13.54,13.54,0,0,0,27.09,0h20A33.58,33.58,0,0,1,1122.88,359.44Z"/><polygon id="Triangle" class="cls-3" points="763.82 -33.55 902.43 156.09 625.21 156.09 763.82 -33.55"/><g id="Circle"><path class="cls-4" d="M679.24,896.75l33.58-45.94,33.58,45.94A92.24,92.24,0,1,0,679.24,896.75Z"/><path class="cls-5" d="M684.24,890.75l33.58-45.94,33.58,45.94A92.24,92.24,0,1,0,684.24,890.75Z"/></g><path id="Banner" class="cls-5" d="M201,97V209.59l60.5,30,60.5-30V97H201Zm61.86,88.09a18,18,0,1,1,18-18A18,18,0,0,1,262.86,185.09Z"/><g id="Cross"><path class="cls-6" d="M166.5,448.66a10.12,10.12,0,0,1-7.18-3l-44-44a10.15,10.15,0,0,1,14.36-14.36l44,44A10.15,10.15,0,0,1,166.5,448.66Z"/><path class="cls-6" d="M122.5,448.66a10.15,10.15,0,0,1-7.18-17.33l44-44a10.15,10.15,0,0,1,14.36,14.36l-44,44A10.12,10.12,0,0,1,122.5,448.66Z"/></g><g id="Dots"><circle class="cls-7" cx="481.3" cy="292.75" r="19.75"/><circle class="cls-7" cx="547.7" cy="292.75" r="19.75"/><circle class="cls-8" cx="476.3" cy="287.75" r="19.75"/><circle class="cls-8" cx="542.7" cy="287.75" r="19.75"/></g><rect id="Line" class="cls-1" x="934" y="491.16" width="10" height="167"/><g id="Title"><path class="cls-8" d="M223.19,415.74H246V574.66H223.19V415.74Z"/><path class="cls-8" d="M267.15,415.74H289L323.4,511.5h0.45V415.74h22.77V574.66H325.19l-34.82-95.53h-0.45v95.53H267.15V415.74Z"/><path class="cls-8" d="M367.14,415.74h33.7q19.42,0,29.69,10.83t10.27,30.24v74.33q0,22.32-10.82,32.92t-31.14,10.6H367.14V415.74Zm22.77,137.49H400.4q9.59,0,13.62-4.8t4-15.07V456.81q0-9.37-3.79-14.51t-13.84-5.13H389.91V553.24Z"/><path class="cls-8" d="M462.22,415.74h67.85v21.43H485v46.65h39.28v21.43H485V551.9h45.09v22.77H462.22V415.74Z"/><path class="cls-8" d="M544.81,415.74h33.26q10.93,0,18.64,3.35A35.19,35.19,0,0,1,609.31,428a33.42,33.42,0,0,1,7,12.83,53.49,53.49,0,0,1,2.12,15.07v5.8a50.73,50.73,0,0,1-1,10.94,26.3,26.3,0,0,1-3,7.81,25.07,25.07,0,0,1-4.91,5.91,42.75,42.75,0,0,1-6.7,4.8,24.59,24.59,0,0,1,11.83,11.27q3.79,7.48,3.79,20v8.93q0,21-10.16,32.14t-32.48,11.16h-31V415.74Zm22.77,65.17h10.27q11.38,0,15.29-5.69T597,458.6q0-10.71-4.35-16.07t-15.74-5.36h-9.37v43.75Zm0,71h9.82q6.92,0,10.83-2a13.86,13.86,0,0,0,5.92-5.58,21,21,0,0,0,2.46-8.48q0.44-4.91.45-10.71a71.73,71.73,0,0,0-.67-10.49,17.27,17.27,0,0,0-2.79-7.48,13.16,13.16,0,0,0-5.92-4.58,26.88,26.88,0,0,0-10-1.56h-10V551.9Z"/><path class="cls-8" d="M638.55,453.24a40.6,40.6,0,0,1,3.35-17,35.37,35.37,0,0,1,8.82-12.16A38,38,0,0,1,663,416.86a39.6,39.6,0,0,1,27.45,0,38.1,38.1,0,0,1,12.28,7.25,35.42,35.42,0,0,1,8.82,12.16,40.6,40.6,0,0,1,3.35,17v83.92a40.39,40.39,0,0,1-3.35,17.07,35.64,35.64,0,0,1-8.82,12.05,38,38,0,0,1-12.28,7.25,39.6,39.6,0,0,1-27.45,0,37.9,37.9,0,0,1-12.28-7.25,35.59,35.59,0,0,1-8.82-12.05,40.39,40.39,0,0,1-3.35-17.07V453.24Zm22.77,83.92q0,8.26,4.58,12.16a17,17,0,0,0,21.65,0q4.57-3.9,4.58-12.16V453.24q0-8.25-4.58-12.16a17,17,0,0,0-21.65,0q-4.58,3.91-4.58,12.16v83.92Z"/><path class="cls-8" d="M756,491.41l-29.69-75.66h24.11l17.19,47.1L785,415.74h24.11l-30.35,75.66,32.81,83.25H787.42l-19.86-53.57-19.64,53.57H723.81Z"/></g></svg>